# xmcd
#
# Track frame offsets:
#	150
#	19496
#	37834
#	59305
#	78826
#	102577
#	124383
#	145998
#	163582
#	185989
#
# Disc length: 2729 seconds
#
# Revision: 1
# Processed by: cddbd v1.4PL0 Copyright (c) Steve Scherf et al.
# Submitted via: audiograbber 1.81.02
#
DISCID=8d0aa70a
DTITLE=Kevin Montgomery and Pettibone - Another Long Story
DYEAR=1900
DGENRE=Country
TTITLE0=Another Long Story
TTITLE1=Let's All Go to California
TTITLE2=Visions of White
TTITLE3=I Wish I Were Blind
TTITLE4=Lookin' Out for #1
TTITLE5=Angel Tonight
TTITLE6=Stumbled
TTITLE7=Your Kind of Love
TTITLE8=Broken
TTITLE9=At Our Best
EXTD=Road Trip Records 699847000125
EXTT0=
EXTT1=
EXTT2=
EXTT3=
EXTT4=
EXTT5=
EXTT6=
EXTT7=
EXTT8=
EXTT9=
PLAYORDER=
